<?xml version="1.0" encoding="UTF-8" standalone="no"?>
<!DOCTYPE svg PUBLIC "-//W3C//DTD SVG 1.1//EN" "http://www.w3.org/Graphics/SVG/1.1/DTD/svg11.dtd">
<svg width="100%" height="100%" viewBox="0 0 1050 500" version="1.1" xmlns="http://www.w3.org/2000/svg" xmlns:xlink="http://www.w3.org/1999/xlink" xml:space="preserve" xmlns:serif="http://www.serif.com/" style="fill-rule:evenodd;clip-rule:evenodd;stroke-linejoin:round;stroke-miterlimit:2;">
    <path d="M490.56,105.86C490.557,105.813 490.518,105.775 490.47,105.775C490.421,105.775 490.38,105.816 490.38,105.865C490.38,105.867 490.38,105.868 490.38,105.87L433.11,348.45C433.004,348.904 432.596,349.228 432.13,349.23L57.33,349.23C57.023,349.23 56.77,348.977 56.77,348.67L56.77,335.86C56.77,335.542 57.032,335.28 57.35,335.28L421.49,335.28C421.705,335.282 421.893,335.135 421.94,334.93C458.953,178.157 478.877,93.757 481.71,81.73C483.53,74.003 485.87,64.933 488.73,54.52C488.745,54.457 488.801,54.412 488.866,54.412C488.927,54.412 488.982,54.452 489,54.51C491.82,64.03 494.3,73.05 497.11,81.5C524.283,163.427 555.827,258.513 591.74,366.76C592.5,369.06 593.203,370.973 593.85,372.5C593.893,372.605 593.996,372.675 594.11,372.675C594.215,372.675 594.313,372.615 594.36,372.52L613.45,335.61C613.548,335.415 613.745,335.291 613.96,335.29L916,335.18C916.132,335.18 916.261,335.153 916.38,335.1C924.87,331.73 931.71,327.9 936.44,319.71C940.89,312 942.07,305.68 944.28,296.37C945.89,289.61 946.2,285.32 947.25,276.89C947.25,276.742 947.372,276.62 947.52,276.62C947.668,276.62 947.79,276.742 947.79,276.89C949.083,286.43 950.917,296.133 953.29,306C954.09,309.327 955.527,313.127 957.6,317.4C962.42,327.36 971.45,333.07 981.76,335.92C992.2,338.807 1002.26,340.687 1011.93,341.56C1012.26,341.593 1012.49,341.713 1012.64,341.92C1012.66,341.949 1012.68,341.981 1012.69,342.015C1012.77,342.226 1012.66,342.466 1012.44,342.546C1012.41,342.558 1012.37,342.566 1012.34,342.57C1008.15,342.97 1003.55,343.647 998.54,344.6C982.94,347.58 965.89,350.6 957.93,366.14C956.08,369.75 954.08,374.73 952.97,379.56C950.703,389.4 949.007,398.627 947.88,407.24C947.88,407.242 947.88,407.243 947.88,407.245C947.88,407.41 947.745,407.545 947.58,407.545C947.417,407.545 947.283,407.413 947.28,407.25C946.4,402.17 946.01,395.43 944.74,389.95C943.1,382.837 941.767,377.45 940.74,373.79C939.9,370.81 936.92,364.72 934.82,361.93C930.22,355.817 924.07,351.653 916.37,349.44C915.952,349.314 915.521,349.25 915.09,349.25L622.61,349.25C622.335,349.249 622.08,349.404 621.95,349.65C610.57,371.643 604.427,383.497 603.52,385.21C601.467,389.097 599.463,393.25 597.51,397.67C594.863,403.663 592.85,407.81 591.47,410.11C591.448,410.143 591.41,410.163 591.37,410.163C591.322,410.163 591.279,410.134 591.26,410.09L490.56,105.86Z" style="fill:rgb(102,153,0);fill-rule:nonzero;"/>
    <path d="M209.95,271.1C197.617,286.9 182.153,296.967 163.56,301.3C146.487,305.28 129.58,304.793 112.84,299.84C97.62,295.34 83.83,285.37 73.99,272.4C63.183,258.18 57.133,241.7 55.84,222.96C54.26,200.2 59.28,178.42 73.58,160.15C93.13,135.17 122,124.26 153.49,128.47C177.203,131.65 196.07,142.99 210.09,162.49C210.286,162.764 210.233,163.149 209.97,163.36L198.3,172.85C198.218,172.917 198.115,172.954 198.008,172.954C197.863,172.954 197.727,172.886 197.64,172.77C184.353,155.17 167.197,145.71 146.17,144.39C109.04,142.07 78.32,167.96 73.15,204.22C70.21,224.77 74.35,245.44 87.19,261.79C99.377,277.297 115.197,285.92 134.65,287.66C160.39,289.97 181.4,280.41 197.62,260.93C197.724,260.8 197.882,260.724 198.049,260.724C198.177,260.724 198.301,260.768 198.4,260.85L209.83,270.03C210.154,270.288 210.208,270.769 209.95,271.1Z" style="fill-rule:nonzero;"/>
    <path d="M317.835,127.399C363.714,128.039 400.909,168.477 400.232,216.978C400.232,216.978 400.232,216.978 400.232,216.978C399.555,265.479 361.245,304.862 315.365,304.221C269.486,303.581 232.291,263.143 232.968,214.642C232.968,214.642 232.968,214.642 232.968,214.642C233.645,166.141 271.955,126.758 317.835,127.399ZM317.342,144.164C280.49,143.778 249.826,175.884 249.414,215.286C249.414,215.286 249.414,215.287 249.414,215.287C249.001,254.689 278.986,287.43 315.838,287.816C352.69,288.202 383.354,256.096 383.766,216.694C383.766,216.694 383.766,216.693 383.766,216.693C384.179,177.291 354.194,144.55 317.342,144.164Z" style="fill-rule:nonzero;"/>
    <path d="M753.2,270.02C753.524,270.278 753.578,270.759 753.32,271.09C740.987,286.89 725.523,296.96 706.93,301.3C689.857,305.28 672.95,304.797 656.21,299.85C640.99,295.35 627.2,285.38 617.36,272.41C606.547,258.197 600.493,241.72 599.2,222.98C597.61,200.22 602.63,178.44 616.93,160.16C636.47,135.18 665.34,124.26 696.83,128.47C720.543,131.643 739.413,142.98 753.44,162.48C753.636,162.754 753.583,163.139 753.32,163.35L741.65,172.84C741.568,172.907 741.465,172.944 741.358,172.944C741.213,172.944 741.077,172.876 740.99,172.76C727.697,155.16 710.537,145.703 689.51,144.39C652.38,142.08 621.67,167.97 616.51,204.23C613.57,224.78 617.71,245.45 630.56,261.8C642.747,277.307 658.567,285.927 678.02,287.66C703.76,289.97 724.77,280.4 740.99,260.92C741.094,260.79 741.252,260.714 741.419,260.714C741.547,260.714 741.671,260.758 741.77,260.84L753.2,270.02Z" style="fill-rule:nonzero;"/>
    <path d="M798.82,131.82C798.968,131.82 799.09,131.942 799.09,132.09L799.09,201.84C799.09,202.059 799.275,202.24 799.5,202.24L879.06,202.24C879.395,202.24 879.67,201.965 879.67,201.63L879.67,132.17C879.67,131.978 879.828,131.82 880.02,131.82L895.01,131.82C895.378,131.82 895.68,132.118 895.68,132.48L895.68,299.76C895.68,299.957 895.513,300.12 895.31,300.12L879.83,300.12C879.446,300.12 879.13,299.799 879.13,299.41C879.243,290.243 879.263,280.523 879.19,270.25C879.19,269.837 879.307,269.013 879.54,267.78C879.626,267.308 879.67,266.832 879.67,266.36L879.67,219.01C879.67,218.829 879.521,218.68 879.34,218.68L799.52,218.68C799.284,218.68 799.09,218.874 799.09,219.11L799.09,299.32C799.09,299.556 798.896,299.75 798.66,299.75L783.53,299.75C783.322,299.75 783.15,299.578 783.15,299.37L783.15,132.17C783.15,131.978 783.308,131.82 783.5,131.82L798.82,131.82Z" style="fill-rule:nonzero;"/>
</svg>
